<svg width="1280" height="420" viewBox="0 0 1280 420" fill="none" xmlns="http://www.w3.org/2000/svg">
  <defs>
    <linearGradient id="bg" x1="0" y1="0" x2="1280" y2="420" gradientUnits="userSpaceOnUse">
      <stop stop-color="#0B1220"/>
      <stop offset="0.45" stop-color="#0F172A"/>
      <stop offset="0.75" stop-color="#102A43"/>
      <stop offset="1" stop-color="#0B1220"/>
    </linearGradient>
    <linearGradient id="accent" x1="200" y1="90" x2="1060" y2="320" gradientUnits="userSpaceOnUse">
      <stop stop-color="#22D3EE"/>
      <stop offset="0.45" stop-color="#3B82F6"/>
      <stop offset="1" stop-color="#A855F7"/>
    </linearGradient>
    <linearGradient id="soft" x1="0" y1="0" x2="1" y2="1">
      <stop stop-color="#22D3EE" stop-opacity="0.55"/>
      <stop offset="1" stop-color="#A855F7" stop-opacity="0.18"/>
    </linearGradient>
    <filter id="blurA" x="-200" y="-200" width="1680" height="820" filterUnits="userSpaceOnUse" color-interpolation-filters="sRGB">
      <feGaussianBlur stdDeviation="70"/>
    </filter>
    <filter id="glow" x="0" y="0" width="1280" height="420" filterUnits="userSpaceOnUse" color-interpolation-filters="sRGB">
      <feGaussianBlur stdDeviation="10" result="blur"/>
      <feMerge>
        <feMergeNode in="blur"/>
        <feMergeNode in="SourceGraphic"/>
      </feMerge>
    </filter>
  </defs>

  <rect width="1280" height="420" rx="28" fill="url(#bg)"/>

  <g opacity="0.22">
    <path d="M0 72H1280" stroke="#334155"/>
    <path d="M0 132H1280" stroke="#334155"/>
    <path d="M0 192H1280" stroke="#334155"/>
    <path d="M0 252H1280" stroke="#334155"/>
    <path d="M0 312H1280" stroke="#334155"/>
    <path d="M96 0V420" stroke="#334155"/>
    <path d="M256 0V420" stroke="#334155"/>
    <path d="M416 0V420" stroke="#334155"/>
    <path d="M576 0V420" stroke="#334155"/>
    <path d="M736 0V420" stroke="#334155"/>
    <path d="M896 0V420" stroke="#334155"/>
    <path d="M1056 0V420" stroke="#334155"/>
    <path d="M1216 0V420" stroke="#334155"/>
  </g>

  <g filter="url(#blurA)" opacity="0.8">
    <circle cx="1040" cy="94" r="130" fill="#2563EB"/>
    <circle cx="952" cy="290" r="120" fill="#22D3EE"/>
    <circle cx="1160" cy="260" r="120" fill="#A855F7"/>
  </g>

  <rect x="60" y="54" width="640" height="288" rx="22" fill="#0F172A" stroke="rgba(148,163,184,0.22)"/>
  <rect x="60" y="54" width="640" height="38" rx="22" fill="#111C31"/>
  <circle cx="92" cy="73" r="6" fill="#F87171"/>
  <circle cx="114" cy="73" r="6" fill="#FBBF24"/>
  <circle cx="136" cy="73" r="6" fill="#34D399"/>
  <text x="168" y="78" fill="#94A3B8" font-family="Segoe UI, Arial, sans-serif" font-size="14">vasanth.dev / profile</text>

  <text x="92" y="146" fill="url(#accent)" font-family="Segoe UI, Arial, sans-serif" font-size="62" font-weight="700" letter-spacing="2">VASANTH T</text>
  <text x="94" y="188" fill="#E2E8F0" font-family="Segoe UI, Arial, sans-serif" font-size="24" font-weight="600">Open Source Builder / Frontend Developer / AI Tooling</text>
  <text x="94" y="228" fill="#93C5FD" font-family="Consolas, Menlo, monospace" font-size="18">shipping features / fixing real bugs / building in public</text>

  <g filter="url(#glow)">
    <rect x="92" y="258" width="170" height="34" rx="17" fill="rgba(34,211,238,0.12)" stroke="#22D3EE"/>
    <text x="116" y="280" fill="#E0F2FE" font-family="Segoe UI, Arial, sans-serif" font-size="16" font-weight="600">OpenClaude Contributor</text>

    <rect x="278" y="258" width="136" height="34" rx="17" fill="rgba(59,130,246,0.12)" stroke="#3B82F6"/>
    <text x="309" y="280" fill="#DBEAFE" font-family="Segoe UI, Arial, sans-serif" font-size="16" font-weight="600">React / TS</text>

    <rect x="430" y="258" width="164" height="34" rx="17" fill="rgba(168,85,247,0.12)" stroke="#A855F7"/>
    <text x="460" y="280" fill="#F3E8FF" font-family="Segoe UI, Arial, sans-serif" font-size="16" font-weight="600">DX / Runtime UX</text>
  </g>

  <g>
    <rect x="788" y="94" width="406" height="218" rx="24" fill="rgba(15,23,42,0.78)" stroke="rgba(148,163,184,0.2)"/>
    <text x="828" y="136" fill="#E2E8F0" font-family="Segoe UI, Arial, sans-serif" font-size="24" font-weight="700">Current Focus</text>

    <text x="828" y="176" fill="#22D3EE" font-family="Consolas, Menlo, monospace" font-size="16">&gt; open source contributions</text>
    <text x="828" y="206" fill="#60A5FA" font-family="Consolas, Menlo, monospace" font-size="16">&gt; provider UX and AI workflows</text>
    <text x="828" y="236" fill="#C084FC" font-family="Consolas, Menlo, monospace" font-size="16">&gt; frontend polish and dev tools</text>
    <text x="828" y="266" fill="#F8FAFC" font-family="Consolas, Menlo, monospace" font-size="16">&gt; learning fast, shipping faster</text>

    <rect x="828" y="286" width="168" height="2" fill="url(#accent)"/>
  </g>
</svg>
